# Made in Blockbench 5.0.2
mtllib bamboo_leaves.mtl

o plane
v 6.938893903907228e-17 1.1875 0.375
v 6.938893903907228e-17 1.1875 -0.375
v -6.938893903907228e-17 0.5625 0.375
v -6.938893903907228e-17 0.5625 -0.375
vt 1 1
vt 5.551115123125783e-17 1
vt 0 0
vt 1 0
vn -1 2.220446049250313e-16 0
usemtl m_c2644d22-b4d1-e015-3b94-df8469873cab
f 1/1/1 2/2/1 4/3/1 3/4/1
o plane
v 6.938893903907228e-17 0.625 0.375
v 6.938893903907228e-17 0.625 -0.375
v -6.938893903907228e-17 0 0.375
v -6.938893903907228e-17 0 -0.375
vt 1 1
vt 5.551115123125783e-17 1
vt 0 0
vt 1 0
vn -1 2.220446049250313e-16 0
usemtl m_c2644d22-b4d1-e015-3b94-df8469873cab
f 5/5/2 6/6/2 8/7/2 7/8/2
o plane
v 0.375 0.625 1.3877787807814457e-17
v -0.375 0.625 -1.5265566588595902e-16
v 0.375 0 1.5265566588595902e-16
v -0.375 0 -1.3877787807814457e-17
vt 1 1
vt 5.551115123125783e-17 1
vt 0 0
vt 1 0
vn -2.220446049250313e-16 2.220446049250313e-16 1
usemtl m_c2644d22-b4d1-e015-3b94-df8469873cab
f 9/9/3 10/10/3 12/11/3 11/12/3
o plane
v 0.375 1.25 1.3877787807814457e-17
v -0.375 1.25 -1.5265566588595902e-16
v 0.375 0.625 1.5265566588595902e-16
v -0.375 0.625 -1.3877787807814457e-17
vt 1 1
vt 5.551115123125783e-17 1
vt 0 0
vt 1 0
vn -2.220446049250313e-16 2.220446049250313e-16 1
usemtl m_c2644d22-b4d1-e015-3b94-df8469873cab
f 13/13/4 14/14/4 16/15/4 15/16/4
o cuboid
v 0.09375 1 0.09375
v 0.09375 1 -0.09375
v 0.09375 0 0.09375
v 0.09375 0 -0.09375
v -0.09375 1 0.09375
v -0.09375 1 -0.09375
v -0.09375 0 0.09375
v -0.09375 0 -0.09375
vt 0.1875 1
vt 0 1
vt 0 0
vt 0.1875 0
vt 0.1875 0
vt 0.1875 1
vt 0 1
vt 0 0
vt 0.8125 0.8125
vt 1 0.8125
vt 1 1
vt 0.8125 1
vt 1 0.625
vt 1 0.8125
vt 0.8125 0.8125
vt 0.8125 0.625
vt 0.1875 0
vt 0.1875 1
vt 0 1
vt 0 0
vt 0.1875 1
vt 0 1
vt 0 0
vt 0.1875 0
vn 1 0 0
vn -1 0 0
vn 0 1 0
vn 0 -1 0
vn 0 0 1
vn 0 0 -1
usemtl m_b33fe305-ccbf-1667-ab9c-b41ed1021ca9
f 18/17/5 17/18/5 19/19/5 20/20/5
f 23/21/6 21/22/6 22/23/6 24/24/6
f 21/25/7 17/26/7 18/27/7 22/28/7
f 20/29/8 19/30/8 23/31/8 24/32/8
f 19/33/9 17/34/9 21/35/9 23/36/9
f 22/37/10 18/38/10 20/39/10 24/40/10